<?xml version="1.0" encoding="utf-8"?>
<!-- Generator: Adobe Illustrator 17.1.0, SVG Export Plug-In . SVG Version: 6.00 Build 0)  -->
<!DOCTYPE svg PUBLIC "-//W3C//DTD SVG 1.1//EN" "http://www.w3.org/Graphics/SVG/1.1/DTD/svg11.dtd">
<svg version="1.1" id="Layer_1" xmlns="http://www.w3.org/2000/svg" xmlns:xlink="http://www.w3.org/1999/xlink" x="0px" y="0px"
	 viewBox="0 0 512 512" enable-background="new 0 0 512 512" xml:space="preserve">
<linearGradient id="SVGID_1_" gradientUnits="userSpaceOnUse" x1="256" y1="16.8686" x2="256" y2="475.7747">
	<stop  offset="0" style="stop-color:#ED317F"/>
	<stop  offset="0.5699" style="stop-color:#912B8B"/>
	<stop  offset="1" style="stop-color:#262B60"/>
</linearGradient>
<path fill="url(#SVGID_1_)" d="M191.5,177.7c-9.5-11.9-8.4-12.9,2.4-2.2L353.6,334c10.8,10.7,27.5,9.8,37.1-2l61.3-75.6
	c9.6-11.8,9.8-31.3,0.5-43.4L355.6,88.1c-9.3-12-8-13.2,2.9-2.6l110,106.8c10.9,10.6,27.4,9.9,36.7-1.6c9.3-11.5,9.1-30.5-0.5-42.3
	l-80.5-99.3c-9.6-11.8-29.9-21.5-45.1-21.5H231.6c-15.2,0-20,9.8-10.6,21.8l123.3,157.2c9.4,12,8.2,13-2.7,2.4L176.8,47.1
	c-10.9-10.7-30.9-19.4-44.6-19.4c-13.7,0-32.7,9.7-42.3,21.5L55.7,91.4c-9.6,11.8-9.7,31.2-0.2,43.2l158.5,199.9
	c9.5,11.9,8.3,12.9-2.5,2.2L34.5,161.2c-10.8-10.7-24.8-13.1-31.1-5.3c-6.3,7.8-3.6,23.8,6,35.6l230.2,283.9
	c9.6,11.8,25.3,11.8,34.8,0l60-74c9.6-11.8,9.7-31.2,0.2-43.2L191.5,177.7z"/>
</svg>
